<mxfile host="app.diagrams.net" modified="2024-03-30T08:33:49.285Z" agent="Mozilla/5.0 (Windows NT 10.0; Win64; x64) AppleWebKit/537.36 (KHTML, like Gecko) Chrome/123.0.0.0 Safari/537.36" etag="uxdLBrGreebbBQUsVyOy" version="24.2.1" type="github">
  <diagram name="Page-1" id="jYtFQfhKAu0jPOh-EE3l">
    <mxGraphModel dx="1444" dy="895" grid="0" gridSize="10" guides="1" tooltips="1" connect="1" arrows="1" fold="1" page="0" pageScale="1" pageWidth="850" pageHeight="1100" background="#ffffff" math="0" shadow="1">
      <root>
        <mxCell id="0" />
        <mxCell id="1" parent="0" />
        <mxCell id="saPew40BkC69EXZ7Qm-d-6" value="" style="endArrow=classic;html=1;rounded=0;entryX=-0.003;entryY=0.447;entryDx=0;entryDy=0;entryPerimeter=0;" parent="1" edge="1">
          <mxGeometry width="50" height="50" relative="1" as="geometry">
            <mxPoint x="30" y="80" as="sourcePoint" />
            <mxPoint x="99.66999999999985" y="79.16999999999996" as="targetPoint" />
          </mxGeometry>
        </mxCell>
        <mxCell id="saPew40BkC69EXZ7Qm-d-8" value="" style="endArrow=classic;html=1;rounded=0;fontSize=31;" parent="1" edge="1">
          <mxGeometry width="50" height="50" relative="1" as="geometry">
            <mxPoint x="220" y="80" as="sourcePoint" />
            <mxPoint x="520" y="80" as="targetPoint" />
          </mxGeometry>
        </mxCell>
        <mxCell id="saPew40BkC69EXZ7Qm-d-9" value="S3" style="ellipse;whiteSpace=wrap;html=1;aspect=fixed;fontSize=31;fillColor=#d5e8d4;strokeColor=#82b366;" parent="1" vertex="1">
          <mxGeometry x="525" y="260" width="110" height="110" as="geometry" />
        </mxCell>
        <mxCell id="saPew40BkC69EXZ7Qm-d-10" value="S4" style="ellipse;whiteSpace=wrap;html=1;aspect=fixed;fontSize=31;fillColor=#d5e8d4;strokeColor=#82b366;" parent="1" vertex="1">
          <mxGeometry x="525" y="490" width="110" height="110" as="geometry" />
        </mxCell>
        <mxCell id="saPew40BkC69EXZ7Qm-d-11" value="" style="endArrow=classic;html=1;rounded=0;exitX=0.5;exitY=1;exitDx=0;exitDy=0;entryX=0.5;entryY=0;entryDx=0;entryDy=0;fontSize=31;" parent="1" source="saPew40BkC69EXZ7Qm-d-9" target="saPew40BkC69EXZ7Qm-d-10" edge="1">
          <mxGeometry width="50" height="50" relative="1" as="geometry">
            <mxPoint x="510" y="480" as="sourcePoint" />
            <mxPoint x="210" y="570" as="targetPoint" />
          </mxGeometry>
        </mxCell>
        <mxCell id="saPew40BkC69EXZ7Qm-d-12" value="" style="endArrow=classic;html=1;rounded=0;entryX=0.5;entryY=0;entryDx=0;entryDy=0;fontSize=31;" parent="1" target="saPew40BkC69EXZ7Qm-d-9" edge="1">
          <mxGeometry width="50" height="50" relative="1" as="geometry">
            <mxPoint x="580" y="150" as="sourcePoint" />
            <mxPoint x="580" y="410" as="targetPoint" />
          </mxGeometry>
        </mxCell>
        <mxCell id="saPew40BkC69EXZ7Qm-d-13" value="S8" style="ellipse;whiteSpace=wrap;html=1;aspect=fixed;fontSize=31;fillColor=#fff2cc;strokeColor=#d6b656;" parent="1" vertex="1">
          <mxGeometry x="100" y="260" width="110" height="110" as="geometry" />
        </mxCell>
        <mxCell id="saPew40BkC69EXZ7Qm-d-19" value="" style="endArrow=classic;html=1;rounded=0;fontSize=31;" parent="1" edge="1">
          <mxGeometry width="50" height="50" relative="1" as="geometry">
            <mxPoint x="214" y="310" as="sourcePoint" />
            <mxPoint x="532.6273247968988" y="112.9433291520595" as="targetPoint" />
          </mxGeometry>
        </mxCell>
        <mxCell id="saPew40BkC69EXZ7Qm-d-21" value="" style="endArrow=classic;html=1;rounded=0;entryX=0.5;entryY=1;entryDx=0;entryDy=0;fontSize=31;" parent="1" target="saPew40BkC69EXZ7Qm-d-13" edge="1">
          <mxGeometry width="50" height="50" relative="1" as="geometry">
            <mxPoint x="155" y="480" as="sourcePoint" />
            <mxPoint x="150" y="390" as="targetPoint" />
          </mxGeometry>
        </mxCell>
        <mxCell id="saPew40BkC69EXZ7Qm-d-29" value="&lt;span style=&quot;font-size: 35px;&quot;&gt;c1&lt;/span&gt;" style="text;strokeColor=none;align=center;fillColor=none;html=1;verticalAlign=middle;whiteSpace=wrap;rounded=0;" parent="1" vertex="1">
          <mxGeometry x="320" y="30" width="100" height="40" as="geometry" />
        </mxCell>
        <mxCell id="saPew40BkC69EXZ7Qm-d-31" value="&lt;font style=&quot;font-size: 35px;&quot;&gt;c2&lt;/font&gt;" style="text;strokeColor=none;align=center;fillColor=none;html=1;verticalAlign=middle;whiteSpace=wrap;rounded=0;" parent="1" vertex="1">
          <mxGeometry x="590" y="190" width="100" height="40" as="geometry" />
        </mxCell>
        <mxCell id="saPew40BkC69EXZ7Qm-d-32" value="&lt;font style=&quot;font-size: 35px;&quot;&gt;c3&lt;/font&gt;" style="text;strokeColor=none;align=center;fillColor=none;html=1;verticalAlign=middle;whiteSpace=wrap;rounded=0;" parent="1" vertex="1">
          <mxGeometry x="590" y="426" width="100" height="40" as="geometry" />
        </mxCell>
        <mxCell id="saPew40BkC69EXZ7Qm-d-34" value="&lt;font style=&quot;font-size: 35px;&quot;&gt;c7&lt;/font&gt;" style="text;strokeColor=none;align=center;fillColor=none;html=1;verticalAlign=middle;whiteSpace=wrap;rounded=0;" parent="1" vertex="1">
          <mxGeometry x="52" y="416" width="100" height="40" as="geometry" />
        </mxCell>
        <mxCell id="-nfYya8_O-6qIzE5lIvR-1" value="S2" style="ellipse;whiteSpace=wrap;html=1;aspect=fixed;fontSize=31;fillColor=#d5e8d4;strokeColor=#82b366;" vertex="1" parent="1">
          <mxGeometry x="525" y="32" width="110" height="110" as="geometry" />
        </mxCell>
        <mxCell id="-nfYya8_O-6qIzE5lIvR-2" value="S1" style="ellipse;whiteSpace=wrap;html=1;aspect=fixed;fontSize=31;fillColor=#d5e8d4;strokeColor=#82b366;" vertex="1" parent="1">
          <mxGeometry x="100" y="27" width="110" height="110" as="geometry" />
        </mxCell>
        <mxCell id="-nfYya8_O-6qIzE5lIvR-3" value="S7" style="ellipse;whiteSpace=wrap;html=1;aspect=fixed;fontSize=31;fillColor=#d5e8d4;strokeColor=#82b366;" vertex="1" parent="1">
          <mxGeometry x="100" y="479" width="110" height="110" as="geometry" />
        </mxCell>
        <mxCell id="-nfYya8_O-6qIzE5lIvR-4" value="S5" style="ellipse;whiteSpace=wrap;html=1;aspect=fixed;fontSize=31;fillColor=#d5e8d4;strokeColor=#82b366;" vertex="1" parent="1">
          <mxGeometry x="525" y="718" width="110" height="110" as="geometry" />
        </mxCell>
        <mxCell id="-nfYya8_O-6qIzE5lIvR-5" value="" style="endArrow=classic;html=1;rounded=0;exitX=0.039;exitY=0.642;exitDx=0;exitDy=0;entryX=0.97;entryY=0.679;entryDx=0;entryDy=0;entryPerimeter=0;exitPerimeter=0;fontSize=31;" edge="1" parent="1" source="-nfYya8_O-6qIzE5lIvR-4">
          <mxGeometry width="50" height="50" relative="1" as="geometry">
            <mxPoint x="590" y="608" as="sourcePoint" />
            <mxPoint x="206.70000000000005" y="792.69" as="targetPoint" />
          </mxGeometry>
        </mxCell>
        <mxCell id="-nfYya8_O-6qIzE5lIvR-6" value="&lt;font style=&quot;font-size: 35px;&quot;&gt;c5&lt;/font&gt;" style="text;strokeColor=none;align=center;fillColor=none;html=1;verticalAlign=middle;whiteSpace=wrap;rounded=0;" vertex="1" parent="1">
          <mxGeometry x="320" y="813" width="100" height="40" as="geometry" />
        </mxCell>
        <mxCell id="-nfYya8_O-6qIzE5lIvR-7" value="S6" style="ellipse;whiteSpace=wrap;html=1;aspect=fixed;fontSize=31;fillColor=#d5e8d4;strokeColor=#82b366;" vertex="1" parent="1">
          <mxGeometry x="100" y="707" width="110" height="110" as="geometry" />
        </mxCell>
        <mxCell id="-nfYya8_O-6qIzE5lIvR-9" value="" style="endArrow=classic;html=1;rounded=0;exitX=0.5;exitY=1;exitDx=0;exitDy=0;entryX=0.5;entryY=0;entryDx=0;entryDy=0;fontSize=31;" edge="1" parent="1">
          <mxGeometry width="50" height="50" relative="1" as="geometry">
            <mxPoint x="579.17" y="598" as="sourcePoint" />
            <mxPoint x="579.17" y="718" as="targetPoint" />
          </mxGeometry>
        </mxCell>
        <mxCell id="-nfYya8_O-6qIzE5lIvR-10" value="" style="endArrow=classic;html=1;rounded=0;exitX=0.5;exitY=0;exitDx=0;exitDy=0;entryX=0.5;entryY=1;entryDx=0;entryDy=0;fontSize=31;" edge="1" parent="1" source="-nfYya8_O-6qIzE5lIvR-7" target="-nfYya8_O-6qIzE5lIvR-3">
          <mxGeometry width="50" height="50" relative="1" as="geometry">
            <mxPoint x="369.16999999999996" y="589" as="sourcePoint" />
            <mxPoint x="369.16999999999996" y="709" as="targetPoint" />
          </mxGeometry>
        </mxCell>
        <mxCell id="-nfYya8_O-6qIzE5lIvR-12" value="&lt;font style=&quot;font-size: 35px;&quot;&gt;c4&lt;/font&gt;" style="text;strokeColor=none;align=center;fillColor=none;html=1;verticalAlign=middle;whiteSpace=wrap;rounded=0;" vertex="1" parent="1">
          <mxGeometry x="590" y="639" width="100" height="40" as="geometry" />
        </mxCell>
        <mxCell id="-nfYya8_O-6qIzE5lIvR-13" value="&lt;font style=&quot;font-size: 35px;&quot;&gt;c6&lt;/font&gt;" style="text;strokeColor=none;align=center;fillColor=none;html=1;verticalAlign=middle;whiteSpace=wrap;rounded=0;" vertex="1" parent="1">
          <mxGeometry x="52" y="628" width="100" height="40" as="geometry" />
        </mxCell>
        <mxCell id="-nfYya8_O-6qIzE5lIvR-14" value="&lt;font style=&quot;font-size: 35px;&quot;&gt;c8&lt;/font&gt;" style="text;strokeColor=none;align=center;fillColor=none;html=1;verticalAlign=middle;whiteSpace=wrap;rounded=0;" vertex="1" parent="1">
          <mxGeometry x="254" y="268" width="100" height="40" as="geometry" />
        </mxCell>
        <mxCell id="-nfYya8_O-6qIzE5lIvR-16" value="S8" style="ellipse;whiteSpace=wrap;html=1;aspect=fixed;fontSize=31;fillColor=#d5e8d4;strokeColor=#82b366;" vertex="1" parent="1">
          <mxGeometry x="114" y="274" width="82" height="82" as="geometry" />
        </mxCell>
        <mxCell id="-nfYya8_O-6qIzE5lIvR-18" value="" style="endArrow=classic;html=1;rounded=0;exitX=0.5;exitY=0;exitDx=0;exitDy=0;entryX=0.5;entryY=1;entryDx=0;entryDy=0;fontSize=31;" edge="1" parent="1" source="saPew40BkC69EXZ7Qm-d-13">
          <mxGeometry width="50" height="50" relative="1" as="geometry">
            <mxPoint x="154.09" y="255" as="sourcePoint" />
            <mxPoint x="154.09" y="137" as="targetPoint" />
          </mxGeometry>
        </mxCell>
        <mxCell id="-nfYya8_O-6qIzE5lIvR-20" value="&lt;font style=&quot;font-size: 35px;&quot;&gt;c9&lt;/font&gt;" style="text;strokeColor=none;align=center;fillColor=none;html=1;verticalAlign=middle;whiteSpace=wrap;rounded=0;" vertex="1" parent="1">
          <mxGeometry x="52" y="182" width="100" height="40" as="geometry" />
        </mxCell>
      </root>
    </mxGraphModel>
  </diagram>
</mxfile>
